<svg width="106" height="33" viewBox="0 0 106 33" fill="none" xmlns="http://www.w3.org/2000/svg">
<path d="M16.1928 0.760742C7.46749 0.760742 0.39389 7.83414 0.39389 16.5594C0.39389 25.2851 7.46749 32.358 16.1928 32.358C24.9191 32.358 31.9919 25.2851 31.9919 16.5594C31.9919 7.83471 24.9191 0.761497 16.1926 0.761497L16.1928 0.760742ZM23.4381 23.547C23.1551 24.0111 22.5476 24.1583 22.0835 23.8734C18.3741 21.6076 13.7044 21.0944 8.20496 22.3509C7.67501 22.4717 7.14677 22.1396 7.02603 21.6095C6.90472 21.0793 7.23544 20.5511 7.7667 20.4304C13.7849 19.0554 18.9472 19.6474 23.1117 22.1924C23.5758 22.4773 23.723 23.0829 23.4381 23.547ZM25.3718 19.2452C25.0153 19.8248 24.2569 20.0078 23.6777 19.6512C19.4309 17.0409 12.9575 16.2849 7.93442 17.8097C7.28298 18.0065 6.59494 17.6393 6.39722 16.989C6.20102 16.3376 6.56834 15.6509 7.21865 15.4528C12.9563 13.7118 20.0894 14.5551 24.9662 17.552C25.5454 17.9086 25.7284 18.667 25.3718 19.2454V19.2452ZM25.5379 14.7657C20.4459 11.7413 12.0449 11.4632 7.18337 12.9387C6.40269 13.1755 5.57712 12.7348 5.34054 11.9541C5.10396 11.173 5.54429 10.348 6.32553 10.1107C11.9063 8.41654 21.1836 8.74386 27.046 12.2241C27.7497 12.6408 27.9799 13.5477 27.5629 14.2489C27.1479 14.9511 26.2385 15.1826 25.5386 14.7657H25.5379ZM43.3775 15.3452C40.6495 14.6947 40.1646 14.2382 40.1646 13.2789C40.1646 12.3725 41.0174 11.7626 42.287 11.7626C43.5171 11.7626 44.7358 12.2258 46.0149 13.1792C46.0527 13.2081 46.1017 13.2196 46.1489 13.2121C46.1979 13.2049 46.2395 13.1787 46.2678 13.1392L47.5997 11.2617C47.6544 11.1844 47.6393 11.0778 47.5657 11.0187C46.0432 9.79752 44.3302 9.20381 42.3267 9.20381C39.3817 9.20381 37.3234 10.9714 37.3234 13.5003C37.3234 16.2123 39.0987 17.1726 42.1663 17.9138C44.7755 18.5151 45.2169 19.0188 45.2169 19.9191C45.2169 20.9171 44.3265 21.5378 42.8926 21.5378C41.3004 21.5378 40.0005 21.0001 38.5478 19.7436C38.512 19.7116 38.4629 19.6984 38.4176 19.7002C38.3686 19.704 38.3252 19.7267 38.295 19.7625L36.8008 21.5397C36.7386 21.6151 36.7461 21.7246 36.8178 21.7887C38.5082 23.298 40.5872 24.0941 42.8323 24.0941C46.0055 24.0941 48.0562 22.3603 48.0562 19.6757C48.0619 17.4105 46.7054 16.1559 43.3831 15.3477L43.3775 15.3452ZM55.2366 12.655C53.8613 12.655 52.7331 13.1968 51.8011 14.307V13.0574C51.8011 12.9587 51.7219 12.8783 51.6238 12.8783H49.1807C49.0826 12.8783 49.0033 12.9587 49.0033 13.0574V26.9429C49.0033 27.041 49.0826 27.1221 49.1807 27.1221H51.6238C51.7219 27.1221 51.8011 27.041 51.8011 26.9429V22.5603C52.7331 23.6036 53.8613 24.1149 55.2366 24.1149C57.793 24.1149 60.3814 22.1472 60.3814 18.3855C60.3851 14.623 57.7967 12.6548 55.2385 12.6548L55.2366 12.655ZM57.5402 18.3855C57.5402 20.3002 56.361 21.6378 54.6707 21.6378C53.001 21.6378 51.7408 20.2398 51.7408 18.3855C51.7408 16.531 53.001 15.1334 54.6707 15.1334C56.3327 15.1332 57.5402 16.5006 57.5402 18.3853V18.3855ZM67.0127 12.655C63.7206 12.655 61.1417 15.1898 61.1417 18.4264C61.1417 21.6283 63.7037 24.1356 66.9731 24.1356C70.2766 24.1356 72.8631 21.6095 72.8631 18.3855C72.8631 15.1724 70.2935 12.6553 67.0127 12.6553V12.655ZM67.0127 21.6566C65.262 21.6566 63.9414 20.2492 63.9414 18.3845C63.9414 16.5113 65.2167 15.152 66.9731 15.152C68.7352 15.152 70.0634 16.5589 70.0634 18.4255C70.0634 20.2983 68.7805 21.6566 67.0127 21.6566ZM79.8925 12.8783H77.2041V10.1303C77.2041 10.0318 77.1249 9.95147 77.0268 9.95147H74.5837C74.4855 9.95147 74.4044 10.0318 74.4044 10.1303V12.8783H73.231C73.1329 12.8783 73.0536 12.9587 73.0536 13.0574V15.1566C73.0536 15.2551 73.1329 15.3356 73.231 15.3356H74.4044V20.7681C74.4044 22.9622 75.4968 24.0753 77.6531 24.0753C78.5285 24.0753 79.2549 23.8941 79.9397 23.5055C79.9963 23.4753 80.0303 23.4149 80.0303 23.3508V21.351C80.0303 21.2906 79.9982 21.2322 79.9454 21.2001C79.8925 21.1661 79.8265 21.1642 79.7718 21.1925C79.302 21.4284 78.8474 21.5378 78.338 21.5378C77.555 21.5378 77.2041 21.1812 77.2041 20.3851V15.3366H79.8925C79.9906 15.3366 80.0699 15.2562 80.0699 15.1575V13.0585C80.0736 12.9598 79.9944 12.8795 79.8944 12.8795L79.8925 12.8783ZM89.2576 12.8891V12.5516C89.2576 11.5587 89.6387 11.1159 90.4914 11.1159C91.0008 11.1159 91.4102 11.217 91.8686 11.3698C91.9252 11.3875 91.9837 11.3787 92.029 11.3449C92.0762 11.3111 92.1026 11.257 92.1026 11.1996V9.14137C92.1026 9.06269 92.0535 8.99308 91.9762 8.96987C91.4932 8.82593 90.8744 8.67821 89.9462 8.67821C87.6917 8.67821 86.4975 9.94864 86.4975 12.3508V12.8678H85.324C85.2259 12.8678 85.1448 12.9481 85.1448 13.0466V15.1566C85.1448 15.2551 85.2259 15.3356 85.324 15.3356H86.4975V23.713C86.4975 23.813 86.5786 23.8923 86.6767 23.8923H89.118C89.218 23.8923 89.2972 23.813 89.2972 23.713V15.3362H91.5781L95.0721 23.713C94.6759 24.5922 94.2854 24.7676 93.7533 24.7676C93.3232 24.7676 92.8685 24.6393 92.4063 24.3847C92.3629 24.362 92.3101 24.3582 92.2648 24.3715C92.2177 24.3884 92.178 24.4224 92.1592 24.4677L91.3309 26.2845C91.2913 26.3712 91.3253 26.4712 91.4083 26.5165C92.2724 26.9844 93.0515 27.1844 94.0156 27.1844C95.8192 27.1844 96.8172 26.3429 97.6944 24.0828L101.932 13.1336C101.954 13.0785 101.947 13.0162 101.913 12.9674C101.881 12.9189 101.826 12.8896 101.768 12.8896H99.2245C99.1471 12.8896 99.0792 12.9381 99.0547 13.0096L96.4493 20.4492L93.5967 13.0047C93.5703 12.9355 93.5043 12.8896 93.4307 12.8896H89.2576V12.8891ZM83.828 12.8783H81.3848C81.2867 12.8783 81.2056 12.9587 81.2056 13.0574V23.713C81.2056 23.813 81.2867 23.8923 81.3848 23.8923H83.828C83.9261 23.8923 84.0072 23.813 84.0072 23.713V13.0581C84.0072 12.9595 83.928 12.8791 83.828 12.8791V12.8783ZM82.6205 8.0262C81.6527 8.0262 80.8679 8.80951 80.8679 9.77715C80.8679 10.7453 81.6527 11.5296 82.6205 11.5296C83.5884 11.5296 84.3713 10.7453 84.3713 9.77715C84.3713 8.8097 83.5865 8.0262 82.6205 8.0262ZM104.018 16.3046C103.052 16.3046 102.3 15.5282 102.3 14.5855C102.3 13.6428 103.062 12.8576 104.028 12.8576C104.994 12.8576 105.746 13.6337 105.746 14.5757C105.746 15.5184 104.984 16.3046 104.018 16.3046ZM104.028 13.0285C103.147 13.0285 102.481 13.7284 102.481 14.5855C102.481 15.4422 103.143 16.1327 104.018 16.1327C104.899 16.1327 105.565 15.4333 105.565 14.5757C105.565 13.719 104.903 13.0285 104.028 13.0285ZM104.409 14.7525L104.896 15.4332H104.484L104.047 14.8087H103.671V15.4332H103.328V13.6288H104.131C104.552 13.6288 104.828 13.8433 104.828 14.2044C104.83 14.5002 104.658 14.681 104.411 14.7525H104.409ZM104.118 13.9384H103.671V14.5091H104.118C104.341 14.5091 104.475 14.3999 104.475 14.2235C104.475 14.0378 104.341 13.9384 104.118 13.9384Z" fill="#9CA3AF"/>
</svg>
