<svg width="74" height="37" viewBox="0 0 74 37" fill="none" xmlns="http://www.w3.org/2000/svg">
<g clip-path="url(#clip0_15_28)">
<path d="M0.889786 27.0724L8.30342 15.5366H1.76803C1.71264 15.2043 1.68891 14.8403 1.68891 14.4368C1.68891 14.0491 1.71264 13.6931 1.76803 13.3687H12.3465L12.481 13.7247L5.01199 25.2843H12.0142C12.0696 25.6483 12.0933 26.028 12.0933 26.4078C12.0933 26.7718 12.0696 27.1199 12.0142 27.4522H1.02429L0.889786 27.0724Z" fill="#9CA3AF"/>
<path d="M22.2842 18.1715C22.2842 17.0875 22.0072 16.3438 21.4613 15.9165C20.9154 15.4972 20.1162 15.2836 19.0718 15.2836C18.431 15.2836 17.8296 15.331 17.2758 15.4339C16.714 15.5368 16.176 15.6633 15.638 15.8295C15.2899 15.2282 15.1158 14.5003 15.1158 13.6616C15.7409 13.4638 16.4213 13.3055 17.1729 13.1948C17.9246 13.084 18.6446 13.0286 19.3409 13.0286C21.1685 13.0286 22.5611 13.448 23.5184 14.2787C24.4679 15.1095 24.9505 16.4466 24.9505 18.2743V27.0884C24.3097 27.2308 23.5343 27.3891 22.6165 27.5394C21.6987 27.6977 20.765 27.7689 19.8156 27.7689C18.9215 27.7689 18.1066 27.6897 17.3866 27.5236C16.6666 27.3574 16.0494 27.0963 15.543 26.7245C15.0367 26.3605 14.649 25.8937 14.3721 25.324C14.0951 24.7544 13.9606 24.066 13.9606 23.2669C13.9606 22.4836 14.1189 21.7873 14.4433 21.1939C14.7598 20.6005 15.1949 20.102 15.7488 19.7143C16.2947 19.3187 16.9277 19.026 17.6477 18.8361C18.3598 18.6462 19.1114 18.5434 19.9026 18.5434C20.4881 18.5434 20.9707 18.5592 21.3426 18.5829C21.7145 18.6066 22.031 18.6462 22.2921 18.6779V18.1715H22.2842ZM22.2842 20.8379C22.0072 20.7983 21.6591 20.7667 21.2398 20.7271C20.8204 20.6875 20.4644 20.6717 20.1716 20.6717C19.0323 20.6717 18.1699 20.8853 17.5765 21.3047C16.983 21.724 16.6824 22.3649 16.6824 23.2273C16.6824 23.7733 16.7852 24.2084 16.983 24.517C17.1809 24.8256 17.434 25.0629 17.7347 25.2291C18.0354 25.3952 18.3677 25.4981 18.7395 25.5297C19.1035 25.5693 19.4516 25.5851 19.7839 25.5851C20.2033 25.5851 20.6384 25.5614 21.0894 25.5139C21.5404 25.4664 21.936 25.4031 22.2842 25.3082V20.8379Z" fill="#9CA3AF"/>
<path d="M27.9175 13.3693C28.0995 13.3297 28.2894 13.306 28.4793 13.2902C28.6692 13.2743 28.867 13.2664 29.0727 13.2664C29.2547 13.2664 29.4445 13.2743 29.6503 13.2902C29.8481 13.306 30.0459 13.3376 30.2278 13.3693C30.2437 13.4088 30.2674 13.5196 30.2991 13.7095C30.3228 13.8994 30.3544 14.1051 30.3782 14.3266C30.4019 14.5482 30.4336 14.7539 30.4573 14.9596C30.481 15.1653 30.4969 15.2919 30.4969 15.3473C30.6788 15.0546 30.9004 14.7697 31.1536 14.4928C31.4067 14.2159 31.7153 13.9706 32.0714 13.7491C32.4274 13.5275 32.8309 13.3535 33.2819 13.2269C33.7329 13.1003 34.2314 13.037 34.7773 13.037C35.6002 13.037 36.3676 13.1715 37.0718 13.4484C37.776 13.7253 38.3773 14.1447 38.8837 14.7222C39.3901 15.2998 39.7777 16.0357 40.0626 16.9218C40.3474 17.808 40.4898 18.8603 40.4898 20.0708C40.4898 22.4919 39.8331 24.3829 38.5276 25.7438C37.2142 27.1047 35.3628 27.793 32.9654 27.793C32.5619 27.793 32.1505 27.7693 31.7311 27.7139C31.3118 27.6585 30.9399 27.5873 30.6314 27.4924V33.9487C30.4098 33.9882 30.1804 34.012 29.9272 34.0278C29.6819 34.0436 29.4525 34.0515 29.2547 34.0515C29.0569 34.0515 28.8274 34.0436 28.5821 34.0278C28.3369 34.012 28.1074 33.9803 27.9096 33.9487V13.3693H27.9175ZM30.6393 25.1504C30.9874 25.277 31.3434 25.3719 31.7074 25.4273C32.0714 25.4827 32.5461 25.5064 33.1395 25.5064C33.7962 25.5064 34.4054 25.4036 34.9514 25.19C35.4973 24.9763 35.972 24.6519 36.3676 24.2168C36.7632 23.7737 37.0718 23.2198 37.3013 22.5552C37.5307 21.8906 37.6415 21.0915 37.6415 20.1816C37.6415 18.7179 37.3725 17.5548 36.8344 16.6924C36.2964 15.8299 35.4103 15.4027 34.1839 15.4027C33.725 15.4027 33.2898 15.4818 32.8626 15.648C32.4432 15.8141 32.0634 16.0594 31.7391 16.3917C31.4067 16.724 31.1456 17.1354 30.9399 17.6418C30.7342 18.1482 30.6393 18.7416 30.6393 19.4379V25.1504Z" fill="#9CA3AF"/>
<path d="M43.8762 15.505H42.0881C42.0485 15.3546 42.0248 15.1885 42.0089 14.9986C41.9931 14.8087 41.9852 14.6188 41.9852 14.4368C41.9852 14.2548 41.9931 14.0649 42.0089 13.8751C42.0248 13.6852 42.0564 13.5111 42.0881 13.3687H46.5426V27.4601C46.3448 27.4997 46.1153 27.5234 45.87 27.5393C45.6248 27.5551 45.3953 27.563 45.1975 27.563C45.0155 27.563 44.8019 27.5551 44.5487 27.5393C44.3035 27.5234 44.074 27.4918 43.8762 27.4601V15.505Z" fill="#9CA3AF"/>
<path d="M52.3896 21.0833C52.4292 22.6183 52.8248 23.7497 53.5843 24.4618C54.3439 25.1739 55.4674 25.5299 56.947 25.5299C58.2446 25.5299 59.4868 25.3005 60.6577 24.8416C60.8081 25.1185 60.9268 25.4508 61.0138 25.8464C61.1087 26.242 61.1562 26.6297 61.1799 27.0174C60.5786 27.2706 59.914 27.4684 59.1861 27.595C58.4661 27.7216 57.6591 27.7849 56.7808 27.7849C55.4991 27.7849 54.3993 27.6029 53.4815 27.2469C52.5637 26.8908 51.812 26.3844 51.2186 25.7357C50.6252 25.0869 50.19 24.3194 49.9131 23.4253C49.6362 22.5392 49.5017 21.566 49.5017 20.4978C49.5017 19.4534 49.6362 18.4803 49.8973 17.5704C50.1584 16.6605 50.5698 15.8772 51.1158 15.2046C51.6617 14.54 52.358 14.002 53.1887 13.6143C54.0195 13.2187 55.0085 13.0209 56.1399 13.0209C57.1131 13.0209 57.9597 13.1871 58.6955 13.5194C59.4314 13.8517 60.0406 14.3027 60.5391 14.8802C61.0296 15.4578 61.4094 16.1462 61.6626 16.9374C61.9158 17.7365 62.0503 18.5989 62.0503 19.5326C62.0503 19.7857 62.0424 20.0627 62.0186 20.3396C62.0028 20.6244 61.9791 20.8697 61.9632 21.0675H52.3896V21.0833ZM59.3681 19.0499C59.3681 18.5356 59.2969 18.0451 59.1624 17.5783C59.0279 17.1115 58.8221 16.7079 58.561 16.3598C58.292 16.0117 57.9597 15.7348 57.5483 15.5211C57.1369 15.3075 56.6463 15.2046 56.0766 15.2046C54.961 15.2046 54.1065 15.5449 53.5052 16.2174C52.9118 16.8978 52.5479 17.8394 52.4213 19.0499H59.3681Z" fill="#9CA3AF"/>
<path d="M65.0569 13.3687C65.2547 13.3291 65.4525 13.3054 65.6345 13.2896C65.8165 13.2737 66.0064 13.2658 66.2121 13.2658C66.4099 13.2658 66.6156 13.2737 66.8134 13.2896C67.0112 13.3054 67.2011 13.337 67.3594 13.3687C67.4147 13.6456 67.4701 14.0017 67.5255 14.4526C67.5809 14.9036 67.6046 15.2834 67.6046 15.592C67.9923 14.9669 68.4987 14.4289 69.1317 13.97C69.7646 13.5111 70.5717 13.2816 71.5607 13.2816C71.711 13.2816 71.8613 13.2896 72.0117 13.2975C72.1699 13.3054 72.2965 13.3212 72.4073 13.337C72.4468 13.5032 72.4706 13.6773 72.4864 13.8592C72.5022 14.0412 72.5101 14.2311 72.5101 14.4368C72.5101 14.6584 72.4943 14.8878 72.4706 15.1252C72.4468 15.3625 72.4073 15.592 72.3756 15.8135C72.2253 15.774 72.075 15.7581 71.9246 15.7581C71.7664 15.7581 71.6477 15.7581 71.5528 15.7581C71.0622 15.7581 70.5875 15.8293 70.1365 15.9639C69.6855 16.0984 69.282 16.3436 68.9259 16.6918C68.5699 17.0399 68.2851 17.5146 68.0714 18.1239C67.8578 18.7252 67.755 19.5085 67.755 20.4579V27.4601C67.5572 27.4997 67.3277 27.5234 67.0824 27.5393C66.8372 27.5551 66.6077 27.563 66.4099 27.563C66.2121 27.563 65.9826 27.5551 65.7374 27.5393C65.4921 27.5234 65.2547 27.4918 65.0332 27.4601V13.3687H65.0569Z" fill="#9CA3AF"/>
<path d="M49.1297 5.07711H46.4713L48.3543 3.19403C48.204 2.98831 48.0379 2.79051 47.8638 2.60853C47.6818 2.42655 47.4919 2.2604 47.2783 2.11798L45.3952 4.00106V1.34259C45.1499 1.30303 44.8968 1.2793 44.6357 1.2793H44.6277C44.3666 1.2793 44.1135 1.30303 43.8682 1.34259V4.00106L41.9851 2.11798C41.7794 2.26831 41.5816 2.43446 41.3996 2.60853C41.2176 2.79051 41.0594 2.9804 40.9091 3.19403L42.8 5.07711H40.1416C40.1416 5.07711 40.0783 5.57557 40.0783 5.83667C40.0783 6.09777 40.102 6.35096 40.1416 6.59623H42.8L40.917 8.47931C41.2097 8.89074 41.5737 9.2547 41.993 9.55536L43.8761 7.67228V10.3307C44.1214 10.3703 44.3746 10.394 44.6357 10.394H44.6436C44.9047 10.394 45.1578 10.3703 45.4031 10.3307V7.67228L47.2862 9.55536C47.4919 9.40503 47.6897 9.23887 47.8717 9.06481C48.0537 8.88283 48.2198 8.69294 48.3623 8.47931L46.4792 6.59623H49.1376C49.1772 6.35096 49.2009 6.09777 49.2009 5.83667V5.82876C49.193 5.57557 49.1772 5.32238 49.1297 5.07711ZM45.775 5.84458C45.775 6.1848 45.7117 6.5092 45.6009 6.80986C45.3003 6.92063 44.9759 6.98392 44.6357 6.98392C44.2954 6.98392 43.971 6.92063 43.6704 6.80986C43.5596 6.5092 43.4963 6.1848 43.4963 5.84458V5.83667C43.4963 5.49645 43.5596 5.17205 43.6704 4.87139C43.971 4.76062 44.2954 4.69733 44.6357 4.69733C44.9759 4.69733 45.3003 4.76062 45.6009 4.87139C45.7117 5.17205 45.775 5.49645 45.775 5.84458Z" fill="#9CA3AF"/>
</g>
<defs>
<clipPath id="clip0_15_28">
<rect width="72.2222" height="36.1111" fill="white" transform="translate(0.888885 0.444336)"/>
</clipPath>
</defs>
</svg>
