<svg width="92" height="37" viewBox="0 0 92 37" fill="none" xmlns="http://www.w3.org/2000/svg">
<g clip-path="url(#clip0_15_37)">
<path d="M29.0161 24.8413L30.1206 22.2597C31.3299 23.1553 32.9073 23.6293 34.485 23.6293C35.6419 23.6293 36.378 23.1817 36.378 22.4969C36.3516 20.6002 29.4106 22.0753 29.3578 17.3067C29.3314 14.8831 31.4875 13.0128 34.5378 13.0128C36.3516 13.0128 38.1661 13.4608 39.4543 14.4883L38.4222 17.1249C37.237 16.3628 35.7731 15.8315 34.3798 15.8315C33.4333 15.8315 32.8021 16.2791 32.8021 16.8591C32.8285 18.7294 39.8227 17.7019 39.9015 22.2597C39.9015 24.736 37.7977 26.4748 34.8003 26.4748C32.592 26.4748 30.5675 25.948 29.0157 24.8413H29.0161ZM72.995 21.3249C72.7162 21.8203 72.3107 22.2326 71.82 22.5195C71.3293 22.8064 70.7711 22.9577 70.2027 22.9577C68.4311 22.9577 66.9952 21.5187 66.9952 19.7438C66.9952 17.9688 68.4311 16.5299 70.2027 16.5299C70.7711 16.5299 71.3293 16.6812 71.82 16.9681C72.3107 17.255 72.7162 17.6673 72.995 18.1627L76.0656 16.4582C74.9155 14.4027 72.7216 13.0128 70.2027 13.0128C66.4925 13.0128 63.4849 16.0261 63.4849 19.7438C63.4849 23.4611 66.4925 26.4748 70.2027 26.4748C72.7216 26.4748 74.9155 25.0848 76.0656 23.0294L72.995 21.3249ZM41.894 26.2112H45.7328V7.40967H41.8944L41.894 26.2112ZM78.0042 7.40967V26.2112H81.843V20.5783L86.3918 26.2112H91.2984L85.5139 19.5194L90.8776 13.2753H86.1813L81.843 18.4666V7.40967H78.0042ZM57.5593 13.276V14.8043C56.9285 13.7504 55.3771 13.0128 53.747 13.0128C50.3815 13.0128 47.726 15.9899 47.726 19.7306C47.726 23.4713 50.3815 26.4748 53.747 26.4748C55.3771 26.4748 56.9285 25.7372 57.5593 24.6833V26.2112H61.3981V13.276H57.5593ZM57.5593 21.3509C57.0073 22.2729 55.8504 22.9573 54.5622 22.9573C52.7903 22.9573 51.3544 21.5187 51.3544 19.7438C51.3544 17.9688 52.7903 16.5299 54.5622 16.5299C55.8504 16.5299 57.0073 17.2411 57.5593 18.1891V21.3509Z" fill="#9CA3AF"/>
<path d="M8.74406 6.99219C7.50005 6.99219 6.49172 8.00278 6.49172 9.24905C6.49142 9.54513 6.54945 9.83837 6.66248 10.112C6.77551 10.3857 6.94133 10.6344 7.15048 10.844C7.35963 11.0535 7.60801 11.2198 7.88143 11.3334C8.15486 11.447 8.44798 11.5056 8.74406 11.5059H10.9968V9.24905C10.9973 8.65106 10.7602 8.07735 10.3378 7.65412C9.91532 7.23089 9.34205 6.99279 8.74406 6.99219ZM8.74406 13.0105H2.73745C1.49344 13.0105 0.485107 14.0211 0.485107 15.2677C0.485107 16.514 1.49344 17.5246 2.73745 17.5246H8.74444C9.98807 17.5246 10.9968 16.514 10.9968 15.2677C10.9968 14.0211 9.98807 13.0105 8.74406 13.0105Z" fill="#9CA3AF"/>
<path d="M23.0093 15.2677C23.0093 14.0211 22.0006 13.0105 20.7566 13.0105C19.5126 13.0105 18.5043 14.0211 18.5043 15.2677V17.5246H20.7566C21.3546 17.524 21.9279 17.2859 22.3503 16.8627C22.7728 16.4394 23.0099 15.8657 23.0093 15.2677ZM17.0027 15.2677V9.24905C17.0032 8.65106 16.7662 8.07735 16.3437 7.65412C15.9213 7.23089 15.348 6.99279 14.75 6.99219C13.506 6.99219 12.4977 8.00278 12.4977 9.24905V15.2673C12.4977 16.5144 13.506 17.525 14.75 17.525C15.348 17.5244 15.9213 17.2863 16.3437 16.863C16.7662 16.4398 17.0032 15.8661 17.0027 15.2681" fill="#9CA3AF"/>
<path d="M14.75 29.5627C15.348 29.5621 15.9213 29.324 16.3437 28.9007C16.7662 28.4775 17.0032 27.9038 17.0027 27.3058C17.0032 26.7078 16.7662 26.1341 16.3437 25.7109C15.9213 25.2877 15.348 25.0496 14.75 25.049H12.4977V27.3058C12.4977 28.5521 13.506 29.5627 14.75 29.5627ZM14.75 23.5444H20.757C22.0006 23.5444 23.0093 22.5338 23.0093 21.2871C23.0099 20.6891 22.7728 20.1154 22.3503 19.6922C21.9279 19.269 21.3546 19.0309 20.7566 19.0303H14.75C13.506 19.0303 12.4977 20.0409 12.4977 21.2871C12.4974 21.5832 12.5554 21.8765 12.6684 22.1501C12.7815 22.4238 12.9473 22.6725 13.1564 22.882C13.3656 23.0916 13.614 23.2579 13.8874 23.3715C14.1608 23.4851 14.4539 23.5437 14.75 23.544" fill="#9CA3AF"/>
<path d="M0.485109 21.2871C0.484811 21.5832 0.542834 21.8765 0.655864 22.1501C0.768893 22.4238 0.934717 22.6725 1.14387 22.882C1.35301 23.0916 1.60139 23.2579 1.87482 23.3715C2.14825 23.4851 2.44137 23.5437 2.73745 23.544C3.33544 23.5434 3.90871 23.3053 4.33116 22.8821C4.75362 22.4588 4.99066 21.8851 4.99016 21.2871V19.0303H2.73745C1.49344 19.0303 0.485109 20.0409 0.485109 21.2871ZM6.49172 21.2871V27.3054C6.49172 28.5521 7.50005 29.5627 8.74406 29.5627C9.34205 29.5621 9.91532 29.324 10.3378 28.9007C10.7602 28.4775 10.9973 27.9038 10.9968 27.3058V21.2871C10.9971 20.991 10.939 20.6978 10.826 20.4241C10.7129 20.1504 10.5471 19.9017 10.3379 19.6921C10.1287 19.4825 9.88027 19.3162 9.6068 19.2027C9.33333 19.0891 9.04017 19.0305 8.74406 19.0303C7.50005 19.0303 6.49172 20.0409 6.49172 21.2871Z" fill="#9CA3AF"/>
</g>
<defs>
<clipPath id="clip0_15_37">
<rect width="91.0301" height="36.1111" fill="white" transform="translate(0.484924 0.444336)"/>
</clipPath>
</defs>
</svg>
