<svg width="74" height="37" viewBox="0 0 74 37" fill="none" xmlns="http://www.w3.org/2000/svg">
<g clip-path="url(#clip0_15_34)">
<path fill-rule="evenodd" clip-rule="evenodd" d="M60.1014 15.9417C60.3829 16.4274 60.475 16.9801 60.5055 17.6013L60.5454 18.4294V24.2198L60.5863 25.0487C60.6679 26.4025 61.6663 27.4035 63.0305 27.4886L63.8551 27.5294V18.4294L63.8959 17.6013C63.9298 16.987 64.0211 16.424 64.3069 15.9348C64.5982 15.433 65.0164 15.0167 65.5195 14.7277C66.0225 14.4386 66.5928 14.287 67.173 14.2881C67.7532 14.2891 68.3229 14.4428 68.8249 14.7337C69.3269 15.0245 69.7435 15.4424 70.033 15.9452C70.3145 16.4309 70.4023 16.994 70.4362 17.6013L70.477 18.4268V24.2198L70.5179 25.0487C70.603 26.4094 71.5936 27.4104 72.9621 27.4886L73.7867 27.5294V17.6013C73.7867 15.8458 73.0895 14.1621 71.8483 12.9204C70.6072 11.6788 68.9238 10.9809 67.1682 10.9803C66.2286 10.9793 65.2996 11.1788 64.4432 11.5655C63.5869 11.9523 62.823 12.5173 62.2024 13.2229C61.5816 12.5176 60.8176 11.9527 59.9614 11.5658C59.1051 11.179 58.1762 10.9791 57.2366 10.9794C55.862 10.9794 54.5865 11.3965 53.5299 12.1168C52.8852 11.3973 51.4428 10.9794 50.6147 10.9794V27.5294L51.4428 27.4886C52.8278 27.3974 53.8288 26.4233 53.8827 25.0487L53.927 24.2198V18.4294L53.9678 17.6013C54.0026 16.9766 54.0895 16.4274 54.3718 15.9382C54.6634 15.4368 55.0814 15.0206 55.5841 14.7312C56.0868 14.4418 56.6566 14.2893 57.2366 14.2891C57.8171 14.2892 58.3874 14.4419 58.8902 14.732C59.393 15.0221 59.8107 15.4393 60.1014 15.9417ZM3.44614 27.4895L4.27421 27.5294H16.6865L16.6457 26.704C16.5336 25.3433 15.57 24.3492 14.2049 24.2606L13.3769 24.2198H5.93034L15.8585 14.2882L15.8176 13.4636C15.7533 12.089 14.7489 11.0958 13.3769 11.0202L12.5488 10.9829L0.136475 10.9794L0.177313 11.8075C0.285926 13.1551 1.26345 14.17 2.6172 14.2482L3.44614 14.2891H10.8927L0.964542 24.2207L1.00538 25.0487C1.08706 26.4129 2.07153 27.4008 3.44614 27.4886V27.4895ZM47.3659 13.4019C48.1344 14.1703 48.7441 15.0826 49.16 16.0866C49.576 17.0906 49.7901 18.1668 49.7901 19.2535C49.7901 20.3403 49.576 21.4165 49.16 22.4205C48.7441 23.4245 48.1344 24.3368 47.3659 25.1052C45.8131 26.6567 43.7079 27.5282 41.5129 27.5282C39.3179 27.5282 37.2127 26.6567 35.66 25.1052C32.4285 21.8737 32.4285 16.6334 35.66 13.4019C36.4278 12.6338 37.3394 12.0244 38.3428 11.6086C39.3462 11.1928 40.4216 10.9787 41.5077 10.9785C42.5956 10.9778 43.6729 11.1915 44.6781 11.6075C45.6833 12.0234 46.5966 12.6335 47.3659 13.4028V13.4019ZM45.0242 15.7453C45.9549 16.6768 46.4778 17.9398 46.4778 19.2566C46.4778 20.5734 45.9549 21.8364 45.0242 22.7678C44.0927 23.6986 42.8297 24.2215 41.5129 24.2215C40.1961 24.2215 38.9331 23.6986 38.0017 22.7678C37.0709 21.8364 36.548 20.5734 36.548 19.2566C36.548 17.9398 37.0709 16.6768 38.0017 15.7453C38.9331 14.8146 40.1961 14.2917 41.5129 14.2917C42.8297 14.2917 44.0927 14.8146 45.0242 15.7453ZM24.14 10.9785C25.2262 10.9788 26.3016 11.193 27.305 11.609C28.3084 12.0249 29.22 12.6345 29.9877 13.4028C33.2201 16.6334 33.2201 21.8746 29.9877 25.1052C28.435 26.6567 26.3298 27.5282 24.1348 27.5282C21.9398 27.5282 19.8346 26.6567 18.2818 25.1052C15.0504 21.8737 15.0504 16.6334 18.2818 13.4019C19.0497 12.6338 19.9613 12.0244 20.9647 11.6086C21.968 11.1928 23.0435 10.9787 24.1296 10.9785H24.14ZM27.646 15.7436C28.5771 16.6751 29.1001 17.9383 29.1001 19.2553C29.1001 20.5723 28.5771 21.8354 27.646 22.767C26.7146 23.6978 25.4516 24.2206 24.1348 24.2206C22.818 24.2206 21.555 23.6978 20.6235 22.767C19.6928 21.8355 19.1699 20.5725 19.1699 19.2557C19.1699 17.9389 19.6928 16.676 20.6235 15.7445C21.555 14.8137 22.818 14.2908 24.1348 14.2908C25.4516 14.2908 26.7146 14.8137 27.646 15.7445V15.7436Z" fill="#9CA3AF"/>
</g>
<defs>
<clipPath id="clip0_15_34">
<rect width="73.7268" height="36.1111" fill="white" transform="translate(0.136597 0.444336)"/>
</clipPath>
</defs>
</svg>
