<svg width="29" height="29" viewBox="0 0 29 29" fill="none" xmlns="http://www.w3.org/2000/svg">
<path d="M21.3748 13.5937H4.53125C4.2909 13.5937 4.06039 13.6892 3.89043 13.8591C3.72048 14.0291 3.625 14.2596 3.625 14.4999C3.625 14.7403 3.72048 14.9708 3.89043 15.1407C4.06039 15.3107 4.2909 15.4062 4.53125 15.4062H21.3748L14.7646 22.0145C14.5945 22.1847 14.4989 22.4155 14.4989 22.6562C14.4989 22.8968 14.5945 23.1276 14.7646 23.2978C14.9348 23.468 15.1656 23.5636 15.4062 23.5636C15.6469 23.5636 15.8777 23.468 16.0479 23.2978L24.2041 15.1415C24.2885 15.0574 24.3555 14.9574 24.4012 14.8473C24.4469 14.7372 24.4704 14.6191 24.4704 14.4999C24.4704 14.3807 24.4469 14.2627 24.4012 14.1526C24.3555 14.0425 24.2885 13.9425 24.2041 13.8583L16.0479 5.70205C15.8777 5.53188 15.6469 5.43628 15.4062 5.43628C15.1656 5.43628 14.9348 5.53188 14.7646 5.70205C14.5945 5.87222 14.4989 6.10302 14.4989 6.34367C14.4989 6.58433 14.5945 6.81513 14.7646 6.9853L21.3748 13.5937Z" fill="#A1A1AA"/>
</svg>
